<svg width="18" height="18" viewBox="0 0 18 18" fill="none" xmlns="http://www.w3.org/2000/svg">
<g clip-path="url(#clip0_12_574)">
<path d="M16.6617 7.73996L15.2096 6.28787V4.22662C15.2096 3.8509 15.0603 3.49056 14.7947 3.22489C14.529 2.95921 14.1687 2.80996 13.7929 2.80996H11.7388L10.2867 1.39329C10.0213 1.12943 9.6622 0.981333 9.28794 0.981333C8.91367 0.981333 8.55462 1.12943 8.28919 1.39329L6.8371 2.81704H4.77585C4.40013 2.81704 4.0398 2.96629 3.77412 3.23197C3.50844 3.49765 3.35919 3.85798 3.35919 4.23371V6.28787L1.94252 7.73996C1.80565 7.86854 1.69572 8.02306 1.61911 8.19452C1.5425 8.36598 1.50074 8.55096 1.49627 8.73871C1.49597 9.11281 1.64366 9.47184 1.9071 9.73746L3.36627 11.1895V13.2508C3.36627 13.6265 3.51553 13.9868 3.7812 14.2525C4.04688 14.5182 4.40721 14.6675 4.78294 14.6675H6.8371L8.28919 16.1195C8.5548 16.383 8.91383 16.5307 9.28794 16.5304C9.66204 16.5307 10.0211 16.383 10.2867 16.1195L11.7388 14.6604H13.8C14.1757 14.6604 14.5361 14.5111 14.8018 14.2454C15.0674 13.9798 15.2167 13.6194 15.2167 13.2437V11.1895L16.6688 9.73746C16.9326 9.47203 17.0807 9.11297 17.0807 8.73871C17.0807 8.36444 16.9326 8.00539 16.6688 7.73996H16.6617Z" fill="#85754E"/>
<path d="M12.3945 5.75037L13.415 6.83191L8.82516 11.6996L5.76501 8.45422L6.78482 7.37268L8.82444 9.53576L12.3945 5.75037Z" fill="white"/>
<path d="M12.3945 5.75037L13.415 6.83191L8.82516 11.6996L5.76501 8.45422L6.78482 7.37268L8.82444 9.53576L12.3945 5.75037Z" fill="white"/>
</g>
<defs>
<clipPath id="clip0_12_574">
<rect width="17" height="17" fill="white" transform="translate(0.665039 0.649597)"/>
</clipPath>
</defs>
</svg>
